<svg width="100" height="103" viewBox="0 0 100 103" fill="none" xmlns="http://www.w3.org/2000/svg">
<path d="M51.6087 93.6761C45.9239 93.6761 40.564 92.6398 35.5289 90.5673C30.4939 88.4151 26.0679 85.4259 22.251 81.5997C18.4341 77.6938 15.4293 73.1103 13.2366 67.8493C11.1251 62.5086 10.0693 56.57 10.0693 50.0336C10.0693 44.1349 11.1657 38.6348 13.3584 33.5332C15.5511 28.4316 18.5965 23.9279 22.4946 20.022C26.3927 16.1161 30.9405 13.087 36.138 10.9348C41.4167 8.70284 47.1015 7.58687 53.1923 7.58687C61.151 7.58687 68.1757 9.26083 74.2665 12.6087C80.3573 15.9567 84.8645 20.4604 87.7881 26.12L72.9265 37.1203C70.9775 33.3738 68.1351 30.4244 64.3994 28.2722C60.7449 26.12 56.7656 25.0438 52.4614 25.0438C49.213 25.0438 46.2082 25.7214 43.447 27.0765C40.767 28.3519 38.4119 30.1853 36.3817 32.5767C34.4326 34.8883 32.9302 37.5985 31.8745 40.7073C30.8187 43.8161 30.2908 47.164 30.2908 50.751C30.2908 54.4178 30.8593 57.8056 31.9963 60.9144C33.1332 64.0231 34.7168 66.7334 36.7471 69.045C38.7774 71.277 41.1731 73.0306 43.9343 74.306C46.7766 75.5814 49.9033 76.2191 53.3141 76.2191C57.4559 76.2191 61.3946 75.2227 65.1303 73.2299C68.9472 71.1574 72.4393 68.1283 75.6065 64.1427V83.5128C68.7036 90.2883 60.7043 93.6761 51.6087 93.6761Z" fill="white"/>
<path d="M57.5771 62.947H74.3878V93.0783H90.9548V48.7184H57.5771V62.947Z" fill="#EB2D83"/>
</svg>
